<svg xmlns="http://www.w3.org/2000/svg" width="1200" height="630" viewBox="0 0 1200 630">
  <defs>
    <pattern id="grid" width="40" height="40" patternUnits="userSpaceOnUse">
      <path d="M40 0H0V40" fill="none" stroke="#49d6d0" stroke-opacity=".055"/>
    </pattern>
    <radialGradient id="glow" cx="80%" cy="10%" r="80%">
      <stop offset="0" stop-color="#236783" stop-opacity=".36"/>
      <stop offset=".62" stop-color="#071019" stop-opacity="0"/>
    </radialGradient>
  </defs>
  <rect width="1200" height="630" fill="#071019"/>
  <rect width="1200" height="630" fill="url(#grid)"/>
  <rect width="1200" height="630" fill="url(#glow)"/>
  <path d="M72 88H1128" stroke="#22384b"/>
  <text x="72" y="64" fill="#7f96aa" font-family="monospace" font-size="17" letter-spacing="4">AGENTTEAMS · MCP · EVIDENCE</text>
  <rect x="72" y="150" width="92" height="92" fill="none" stroke="#49d6d0" stroke-width="2"/>
  <rect x="82" y="160" width="72" height="72" fill="#49d6d0" fill-opacity=".08"/>
  <text x="99" y="211" fill="#49d6d0" font-family="Arial, sans-serif" font-size="29" font-weight="700">RP</text>
  <text x="190" y="216" fill="#eaf3ff" font-family="Arial, sans-serif" font-size="72" font-weight="700">RepoPilot</text>
  <text x="72" y="316" fill="#49d6d0" font-family="Arial, sans-serif" font-size="39" font-weight="700">从 Issue 到 Verified PR</text>
  <text x="72" y="372" fill="#c2d1df" font-family="Arial, sans-serif" font-size="27">不跳过任何证据</text>
  <g transform="translate(72 445)">
    <rect width="218" height="62" rx="4" fill="#0c1824" stroke="#22384b"/>
    <text x="22" y="26" fill="#49d6d0" font-family="monospace" font-size="13">5 AGENTS</text>
    <text x="22" y="47" fill="#7f96aa" font-family="monospace" font-size="11">SEPARATION OF DUTIES</text>
  </g>
  <g transform="translate(308 445)">
    <rect width="218" height="62" rx="4" fill="#0c1824" stroke="#22384b"/>
    <text x="22" y="26" fill="#65a8ff" font-family="monospace" font-size="13">8 MCP TOOLS</text>
    <text x="22" y="47" fill="#7f96aa" font-family="monospace" font-size="11">TYPED CONTRACTS</text>
  </g>
  <g transform="translate(544 445)">
    <rect width="258" height="62" rx="4" fill="#0c1824" stroke="#22384b"/>
    <text x="22" y="26" fill="#75df9b" font-family="monospace" font-size="13">CHAIN VERIFIED</text>
    <text x="22" y="47" fill="#7f96aa" font-family="monospace" font-size="11">APPEND-ONLY EVIDENCE</text>
  </g>
  <text x="72" y="575" fill="#547086" font-family="monospace" font-size="16">github.com/wellkilo/RepoPilot</text>
</svg>
